<?xml version="1.0" encoding="UTF-8"?>
<svg id="Grass" xmlns="http://www.w3.org/2000/svg" viewBox="0 0 1716.29 9.78">
  <defs>
    <style>
      .cls-1 {
        fill: #8ccd9d;
        stroke-width: 0px;
      }
    </style>
  </defs>
  <g id="GrassPath">
    <path class="cls-1" d="m1.45,3c59.93,0,119.86.71,179.78,1.13,112.76.8,225.53,1.57,338.29,2.21,128.59.73,257.19,1.31,385.78,1.51,104.09.16,208.15-.69,312.22,1.21,59.26,1.08,118.39,1.06,177.64-.9,45.31-1.49,90.56.91,135.88.26,43.67-.62,87.31-2.16,130.99-1.18,17.59.39,35.22,1,52.82.32,1.92-.07,1.93-3.07,0-3-39.1,1.5-78.38-1.01-117.52-.39-45.43.72-90.86,2.36-136.29.81-45.62-1.56-91.09,2-136.69,2.21-23.36.11-46.77-.29-70.14-.55-44.89-.51-89.76-2.15-134.65-1.97-56.35.23-112.69.28-169.04.24-127.99-.09-255.98-.62-383.96-1.31-116.7-.62-233.4-1.4-350.09-2.22C148.04.9,79.64.26,11.24.02,7.98,0,4.71,0,1.45,0-.48,0-.48,3,1.45,3h0Z"/>
  </g>
</svg>