<?xml version="1.0" encoding="utf-8"?>
<!-- Generator: Adobe Illustrator 27.9.1, SVG Export Plug-In . SVG Version: 6.00 Build 0)  -->
<svg version="1.1" id="Layer_1" xmlns="http://www.w3.org/2000/svg" xmlns:xlink="http://www.w3.org/1999/xlink" x="0px" y="0px"
	 viewBox="0 0 1716.3 9.8" style="enable-background:new 0 0 1716.3 9.8;" xml:space="preserve">
<style type="text/css">
	.st0{fill:#8CCD9D;}
</style>
<path vector-effect="non-scaling-stroke" class="st0" d="M1.4,3c59.9,0,119.9,0.7,179.8,1.1C294,4.9,406.8,5.7,519.5,6.3
	c128.6,0.7,257.2,1.3,385.8,1.5c104.1,0.2,208.2-0.7,312.2,1.2c59.3,1.1,118.4,1.1,177.6-0.9c45.3-1.5,90.6,0.9,135.9,0.3
	c43.7-0.6,87.3-2.2,131-1.2c17.6,0.4,35.2,1,52.8,0.3c1.9-0.1,1.9-3.1,0-3c-39.1,1.5-78.4-1-117.5-0.4c-45.4,0.7-90.9,2.4-136.3,0.8
	c-45.6-1.6-91.1,2-136.7,2.2c-23.4,0.1-46.8-0.3-70.1-0.6c-44.9-0.5-89.8-2.2-134.7-2c-56.3,0.2-112.7,0.3-169,0.2
	c-128-0.1-256-0.6-384-1.3C449.9,3,333.2,2.2,216.5,1.4C148,0.9,79.6,0.3,11.2,0C8,0,4.7,0,1.4,0C-0.5,0-0.5,3,1.4,3L1.4,3z"/>
</svg>
